HIERARCHY
ROOT root
{
	OFFSET 0.000000 0.000000 0.000000
	CHANNELS 6 Xposition Yposition Zposition Zrotation Yrotation Xrotation
	JOINT lhip
	{
		OFFSET 0.058581 -0.082280 -0.017664
		CHANNELS 3 Zrotation Yrotation Xrotation
		JOINT lknee
		{
			OFFSET 0.043451 -0.386469 0.008037
			CHANNELS 3 Zrotation Yrotation Xrotation
			JOINT lankle
			{
				OFFSET -0.014790 -0.426874 -0.037428
				CHANNELS 3 Zrotation Yrotation Xrotation
				JOINT ltoe
				{
					OFFSET 0.041054 -0.060286 0.122042
					CHANNELS 3 Zrotation Yrotation Xrotation
					End Site
					{
						OFFSET 0.000000 0.000000 0.000000
					}
				}
			}
		}
	}
	JOINT rhip
	{
		OFFSET -0.060310 -0.090513 -0.013543
		CHANNELS 3 Zrotation Yrotation Xrotation
		JOINT rknee
		{
			OFFSET -0.043257 -0.383688 -0.004843
			CHANNELS 3 Zrotation Yrotation Xrotation
			JOINT rankle
			{
				OFFSET 0.019056 -0.420046 -0.034562
				CHANNELS 3 Zrotation Yrotation Xrotation
				JOINT rtoe
				{
					OFFSET -0.034840 -0.062106 0.130323
					CHANNELS 3 Zrotation Yrotation Xrotation
					End Site
					{
						OFFSET 0.000000 0.000000 0.000000
					}
				}
			}
		}
	}
	JOINT lowerback
	{
		OFFSET 0.004439 0.124404 -0.038385
		CHANNELS 3 Zrotation Yrotation Xrotation
		JOINT upperback
		{
			OFFSET 0.004488 0.137956 0.026820
			CHANNELS 3 Zrotation Yrotation Xrotation
			JOINT chest
			{
				OFFSET -0.002265 0.056032 0.002855
				CHANNELS 3 Zrotation Yrotation Xrotation
				JOINT lowerneck
				{
					OFFSET -0.013390 0.211636 -0.033468
					CHANNELS 3 Zrotation Yrotation Xrotation
					JOINT upperneck
					{
						OFFSET 0.010113 0.088937 0.050410
						CHANNELS 3 Zrotation Yrotation Xrotation
						End Site
						{
							OFFSET 0.000000 0.000000 0.000000
						}
					}
				}
				JOINT lclavicle
				{
					OFFSET 0.071702 0.114000 -0.018898
					CHANNELS 3 Zrotation Yrotation Xrotation
					JOINT lshoulder
					{
						OFFSET 0.122921 0.045205 -0.019046
						CHANNELS 3 Zrotation Yrotation Xrotation
						JOINT lelbow
						{
							OFFSET 0.255332 -0.015649 -0.022946
							CHANNELS 3 Zrotation Yrotation Xrotation
							JOINT lwrist
							{
								OFFSET 0.265709 0.012698 -0.007375
								CHANNELS 3 Zrotation Yrotation Xrotation
								End Site
								{
									OFFSET 0.000000 0.000000 0.000000
								}
							}
						}
					}
				}
				JOINT rclavicle
				{
					OFFSET -0.082954 0.112472 -0.023707
					CHANNELS 3 Zrotation Yrotation Xrotation
					JOINT rshoulder
					{
						OFFSET -0.113228 0.046853 -0.008472
						CHANNELS 3 Zrotation Yrotation Xrotation
						JOINT relbow
						{
							OFFSET -0.260127 -0.014369 -0.031269
							CHANNELS 3 Zrotation Yrotation Xrotation
							JOINT rwrist
							{
								OFFSET -0.269108 0.006794 -0.006027
								CHANNELS 3 Zrotation Yrotation Xrotation
								End Site
								{
									OFFSET 0.000000 0.000000 0.000000
								}
							}
						}
					}
				}
			}
		}
	}
}
MOTION
Frames: 10
Frame Time: 0.033333
-1.973323 0.021912 0.978500 177.977184 -4.698678 99.822052 -3.113057 7.102563 -7.986076 -3.233313 3.940332 -3.825487 1.737942 20.106783 -19.810404 0.000000 -0.000000 0.000000 -22.644706 -23.963280 -21.811838 -11.206788 -21.674686 0.604383 -2.135190 -24.123571 42.791478 0.000000 -0.000000 0.000000 -8.599321 3.706157 -6.996241 5.986223 0.236771 9.413348 -1.190838 1.579444 -11.982531 7.485836 -52.869372 3.820904 15.444540 -25.882370 -10.775226 -20.374632 5.987939 -5.845344 -17.518018 -11.446609 11.599040 4.619830 -5.540169 14.313769 -19.787327 13.135479 24.132945 17.414367 7.101688 -12.070206 1.225690 32.468345 -14.341673 2.382911 7.208145 -17.049337 14.482637 -3.031671 9.977879 
-1.955761 0.029019 0.973533 176.575441 -4.621835 99.098104 -2.117790 8.224646 -7.670197 -3.102504 1.711652 -2.265174 1.158828 23.377559 -19.456174 0.000000 -0.000000 0.000000 -22.506578 -25.846734 -22.036186 -10.014916 -21.729386 3.662712 -4.001563 -25.902077 43.167292 0.000000 -0.000000 0.000000 -7.087347 3.129557 -5.185278 5.516979 -0.010615 5.801070 -0.574291 1.878118 -8.747283 6.373297 -54.066092 4.053055 16.793124 -24.008806 -13.112643 -20.116090 3.921168 -5.333311 -11.406638 -9.122451 8.954859 3.181482 -4.921263 14.367544 -11.843560 13.192434 20.228222 15.043429 7.046451 -11.030388 -6.903836 21.562021 -19.375203 6.518070 6.582025 -15.907233 3.945653 -6.086405 12.099545 
-1.934432 0.034681 0.975682 174.300237 -4.681509 98.163091 -1.612392 8.333128 -7.511741 -1.708465 1.995222 0.524289 1.601926 26.124175 -18.788824 0.000000 -0.000000 0.000000 -20.647945 -25.225543 -22.883877 -9.579809 -19.953093 6.839627 -7.109737 -28.043808 44.773152 0.000000 -0.000000 0.000000 -6.351093 2.695262 -4.005090 5.822073 -0.194303 5.089870 -0.420727 1.492524 -8.024218 8.059500 -53.470504 2.118793 15.872450 -24.553017 -13.997810 -17.659952 4.203535 -5.367314 -8.767448 -8.546163 6.246885 3.328127 -3.854966 15.343905 -10.226820 12.723059 20.681571 12.934426 5.171477 -12.828616 -7.602357 19.717042 -21.318895 0.909481 -3.991240 -13.360080 -2.547801 -6.764940 19.824028 
-1.899745 0.043816 0.981143 170.374012 -4.994579 96.268039 -0.528684 9.077182 -6.307084 -0.184824 2.191326 4.785438 1.297506 29.863347 -16.914621 0.000000 -0.000000 0.000000 -17.918774 -25.760677 -25.461728 -7.651025 -20.613330 14.809296 -7.839632 -32.254448 33.977165 0.000000 -0.000000 0.000000 -6.230004 1.863407 -2.591986 6.014090 -0.422725 4.123466 -0.029461 0.687172 -6.576282 7.518543 -52.534276 3.002849 15.517460 -24.034261 -13.755448 -14.781656 5.547089 -6.030899 -5.078685 -8.893456 2.342598 3.056403 -2.714766 16.416774 -8.570735 13.558152 24.321503 11.459366 1.779800 -14.973287 -6.629670 16.553583 -20.112397 -3.248433 -8.999685 -5.315261 -6.751610 -7.514254 26.906887 
-1.874432 0.048885 0.985434 167.514639 -5.400219 95.104907 0.504329 9.473622 -5.507642 0.105234 1.996063 7.505803 1.406519 32.073959 -13.584523 0.000000 -0.000000 0.000000 -15.660051 -24.805349 -26.633666 -7.569365 -22.643457 18.118913 -7.813904 -35.463742 26.900595 0.000000 -0.000000 0.000000 -6.688741 1.398085 -1.815647 5.936291 -0.539654 2.978073 0.406121 0.208878 -5.138881 5.587222 -51.583970 5.190388 16.159145 -23.464335 -13.947153 -13.220105 6.527542 -6.119315 -2.950949 -9.570605 0.128933 3.297761 -2.826567 17.530255 -8.247335 14.925586 26.653961 10.535039 -0.623741 -15.665688 -4.581561 14.251368 -18.675010 -5.247498 -9.571880 -1.400354 -7.534642 -7.964789 28.804849 
-1.834737 0.054057 0.992050 163.298775 -5.565614 93.527958 2.732489 10.155728 -5.004333 1.097936 1.973413 12.684808 -0.195300 33.359370 -8.713295 0.000000 -0.000000 0.000000 -10.966086 -23.075103 -27.081612 -9.766690 -25.338541 18.522131 -9.543037 -38.183998 21.137768 0.000000 -0.000000 0.000000 -7.497025 0.833715 -0.662059 5.758817 -0.705710 1.667598 1.178261 -0.302627 -3.914828 3.457812 -49.259551 8.452415 17.154512 -23.604869 -14.347325 -11.860842 7.527221 -6.397587 0.748434 -11.196919 -3.126157 3.143338 -2.257837 18.730961 -5.562678 14.514730 32.308449 9.998505 -3.543428 -15.884530 -2.463814 10.261720 -17.190284 -5.591517 -9.681652 1.502333 -7.946102 -6.974267 30.025982 
-1.791847 0.057817 0.996914 158.238309 -5.982844 92.129526 4.982629 10.944173 -5.244316 2.316192 4.255655 18.663370 0.756274 34.580951 0.024818 0.000000 -0.000000 0.000000 -5.991472 -22.247420 -25.831232 -11.403872 -25.643664 14.604445 -12.736491 -38.867897 18.877556 0.000000 -0.000000 0.000000 -8.055550 0.983727 -0.210344 5.126090 -0.954210 1.274181 1.542563 -1.020063 -3.100912 2.311341 -46.253226 10.643256 17.803125 -24.152382 -14.550483 -10.937007 7.143767 -6.954472 4.883598 -12.186547 -6.377296 2.737047 -1.266777 18.891685 -1.917183 13.553747 38.368298 9.229086 -5.604424 -15.865234 -0.317224 6.050547 -16.609772 -4.915591 -11.095671 1.422776 -8.405085 -6.744267 32.001992 
-1.756345 0.057624 0.999923 152.602581 -7.668275 92.535491 4.573644 9.768106 -8.527638 5.002415 8.899684 25.440193 6.848348 35.852897 13.253551 0.000000 -0.000000 0.000000 -4.232063 -21.159165 -26.061652 -10.156266 -22.806636 13.417711 -13.679942 -38.727761 13.868319 0.000000 -0.000000 0.000000 -8.711036 1.481407 -0.916752 3.841964 -1.489537 1.351125 1.499133 -1.456840 -3.640177 0.692915 -44.373183 12.199431 18.155761 -24.134980 -13.229552 -9.951649 5.989463 -7.285629 8.190096 -13.026150 -7.228092 2.814987 -1.190126 19.632777 -3.239508 14.274986 39.646915 8.149411 -7.717784 -14.205000 2.920077 0.598797 -12.626644 -4.732593 -9.644106 1.105229 -4.599667 -8.591424 27.059909 
-1.715130 0.057418 0.998254 145.845974 -6.810827 91.948565 7.735973 10.926080 -9.586509 6.622069 10.975506 30.955442 11.048821 36.125863 24.334863 0.000000 -0.000000 0.000000 -1.251049 -18.562504 -23.156954 -7.101938 -19.044007 11.401086 -14.252248 -37.948431 7.906130 0.000000 -0.000000 0.000000 -8.541773 1.896914 -1.790991 4.205824 -2.221067 3.204471 2.192040 -1.793630 -4.381921 0.112299 -42.109550 13.761918 17.856368 -23.724730 -13.206496 -9.276950 4.985426 -7.642439 10.587024 -12.946852 -8.773841 2.782248 -1.581407 20.960537 -1.632874 15.977295 41.930963 7.266940 -8.626496 -14.487243 4.254131 -1.714813 -11.138845 -4.734464 -11.994846 1.839821 -4.102923 -9.495736 26.964482 
-1.679147 0.056370 0.990766 136.775109 -6.813464 93.430590 7.750004 10.385041 -14.465416 6.364369 9.845388 39.541209 9.067221 37.237898 20.557520 0.000000 -0.000000 0.000000 0.556104 -15.720325 -24.157594 -3.707384 -14.853555 12.271668 -14.882272 -37.278233 3.394851 0.000000 -0.000000 0.000000 -7.017812 2.019515 -1.756353 4.067358 -2.422411 2.046842 1.751748 -2.187306 -4.219023 0.895896 -39.564224 11.575394 15.568654 -23.498578 -10.168020 -9.020811 4.936511 -9.064944 11.619260 -15.835249 -9.729910 3.209002 -1.605935 23.417271 -1.997885 17.102698 46.344388 6.967030 -10.584854 -15.223564 5.706299 -3.941390 -8.970346 -5.836123 -12.841448 4.201555 -2.838970 -10.898115 26.244543 
